<mxfile host="Electron" agent="Mozilla/5.0 (Windows NT 10.0; Win64; x64) AppleWebKit/537.36 (KHTML, like Gecko) draw.io/27.0.9 Chrome/134.0.6998.205 Electron/35.4.0 Safari/537.36" version="27.0.9">
  <diagram name="Seite-1" id="Wo9utsJGDB0uYM7h2bgi">
    <mxGraphModel dx="1426" dy="841" grid="1" gridSize="10" guides="1" tooltips="1" connect="1" arrows="1" fold="1" page="1" pageScale="1" pageWidth="1169" pageHeight="827" math="0" shadow="0">
      <root>
        <mxCell id="0" />
        <mxCell id="1" parent="0" />
        <mxCell id="xpLYCG2Ab2DHFvzXxpW--3" value="UserSetting" style="swimlane;childLayout=stackLayout;horizontal=1;startSize=50;horizontalStack=0;rounded=1;fontSize=14;fontStyle=0;strokeWidth=2;resizeParent=0;resizeLast=1;shadow=0;dashed=0;align=center;arcSize=4;whiteSpace=wrap;html=1;" parent="1" vertex="1">
          <mxGeometry x="465" y="590" width="190" height="120" as="geometry" />
        </mxCell>
        <mxCell id="xpLYCG2Ab2DHFvzXxpW--4" value="+user: User, FK&lt;br&gt;+setting: Setting, FK&lt;br&gt;+value: varchar(128)" style="align=left;strokeColor=none;fillColor=none;spacingLeft=4;spacingRight=4;fontSize=12;verticalAlign=top;resizable=0;rotatable=0;part=1;html=1;whiteSpace=wrap;" parent="xpLYCG2Ab2DHFvzXxpW--3" vertex="1">
          <mxGeometry y="50" width="190" height="70" as="geometry" />
        </mxCell>
        <mxCell id="xpLYCG2Ab2DHFvzXxpW--5" value="Setting" style="swimlane;childLayout=stackLayout;horizontal=1;startSize=50;horizontalStack=0;rounded=1;fontSize=14;fontStyle=0;strokeWidth=2;resizeParent=0;resizeLast=1;shadow=0;dashed=0;align=center;arcSize=4;whiteSpace=wrap;html=1;" parent="1" vertex="1">
          <mxGeometry x="90" y="560" width="190" height="160" as="geometry" />
        </mxCell>
        <mxCell id="xpLYCG2Ab2DHFvzXxpW--6" value="+ id: integer &amp;lt;&amp;lt;PK&amp;gt;&amp;gt;&lt;br&gt;+ title: varchar(128)&lt;br&gt;+ description: text" style="align=left;strokeColor=none;fillColor=none;spacingLeft=4;spacingRight=4;fontSize=12;verticalAlign=top;resizable=0;rotatable=0;part=1;html=1;whiteSpace=wrap;" parent="xpLYCG2Ab2DHFvzXxpW--5" vertex="1">
          <mxGeometry y="50" width="190" height="110" as="geometry" />
        </mxCell>
        <mxCell id="xpLYCG2Ab2DHFvzXxpW--7" value="Workgroup" style="swimlane;childLayout=stackLayout;horizontal=1;startSize=50;horizontalStack=0;rounded=1;fontSize=14;fontStyle=0;strokeWidth=2;resizeParent=0;resizeLast=1;shadow=0;dashed=0;align=center;arcSize=4;whiteSpace=wrap;html=1;" parent="1" vertex="1">
          <mxGeometry x="90" y="40" width="190" height="160" as="geometry" />
        </mxCell>
        <mxCell id="xpLYCG2Ab2DHFvzXxpW--22" value="+ id: integer &amp;lt;&amp;lt;PK&amp;gt;&amp;gt;&lt;br&gt;+ title: varchar(128)&lt;div&gt;&lt;br&gt;&lt;/div&gt;" style="text;strokeColor=none;fillColor=none;spacingLeft=4;spacingRight=4;overflow=hidden;rotatable=0;points=[[0,0.5],[1,0.5]];portConstraint=eastwest;fontSize=12;whiteSpace=wrap;html=1;" parent="xpLYCG2Ab2DHFvzXxpW--7" vertex="1">
          <mxGeometry y="50" width="190" height="40" as="geometry" />
        </mxCell>
        <mxCell id="xpLYCG2Ab2DHFvzXxpW--17" value="" style="line;strokeWidth=1;rotatable=0;dashed=0;labelPosition=right;align=left;verticalAlign=middle;spacingTop=0;spacingLeft=6;points=[];portConstraint=eastwest;" parent="xpLYCG2Ab2DHFvzXxpW--7" vertex="1">
          <mxGeometry y="90" width="190" height="10" as="geometry" />
        </mxCell>
        <mxCell id="xpLYCG2Ab2DHFvzXxpW--8" value="+ __str__: varchar" style="align=left;strokeColor=none;fillColor=none;spacingLeft=4;spacingRight=4;fontSize=12;verticalAlign=top;resizable=0;rotatable=0;part=1;html=1;whiteSpace=wrap;" parent="xpLYCG2Ab2DHFvzXxpW--7" vertex="1">
          <mxGeometry y="100" width="190" height="60" as="geometry" />
        </mxCell>
        <mxCell id="xpLYCG2Ab2DHFvzXxpW--23" value="User" style="swimlane;childLayout=stackLayout;horizontal=1;startSize=50;horizontalStack=0;rounded=1;fontSize=14;fontStyle=0;strokeWidth=2;resizeParent=0;resizeLast=1;shadow=0;dashed=0;align=center;arcSize=4;whiteSpace=wrap;html=1;" parent="1" vertex="1">
          <mxGeometry x="440" y="280" width="240" height="240" as="geometry" />
        </mxCell>
        <mxCell id="xpLYCG2Ab2DHFvzXxpW--24" value="&lt;div&gt;+ id: integer &amp;lt;&amp;lt;PK&amp;gt;&amp;gt;&lt;br&gt;+ username: varchar(40)&lt;br&gt;+ first_name: varchar(128)&lt;div&gt;+ last_name:&amp;nbsp;&lt;span style=&quot;background-color: transparent; color: light-dark(rgb(0, 0, 0), rgb(255, 255, 255));&quot;&gt;varchar(128)&lt;/span&gt;&lt;/div&gt;&lt;div&gt;+ email: varchar(128)&lt;/div&gt;&lt;div&gt;+ password: varchar(128)&lt;/div&gt;&lt;div&gt;+ settings: UserSetting[ ] &amp;lt;&amp;lt;FK&amp;gt;&amp;gt;&lt;/div&gt;&lt;div&gt;+ favourites: Tag[ ] &amp;lt;&amp;lt;FK&amp;gt;&amp;gt;&lt;/div&gt;&lt;div&gt;+ workgroups: Membership[ ] &amp;lt;&amp;lt;FK&amp;gt;&amp;gt;&lt;/div&gt;&lt;/div&gt;" style="text;strokeColor=none;fillColor=none;spacingLeft=4;spacingRight=4;overflow=hidden;rotatable=0;points=[[0,0.5],[1,0.5]];portConstraint=eastwest;fontSize=12;whiteSpace=wrap;html=1;" parent="xpLYCG2Ab2DHFvzXxpW--23" vertex="1">
          <mxGeometry y="50" width="240" height="140" as="geometry" />
        </mxCell>
        <mxCell id="xpLYCG2Ab2DHFvzXxpW--25" value="" style="line;strokeWidth=1;rotatable=0;dashed=0;labelPosition=right;align=left;verticalAlign=middle;spacingTop=0;spacingLeft=6;points=[];portConstraint=eastwest;" parent="xpLYCG2Ab2DHFvzXxpW--23" vertex="1">
          <mxGeometry y="190" width="240" height="10" as="geometry" />
        </mxCell>
        <mxCell id="xpLYCG2Ab2DHFvzXxpW--26" value="+ __str__: varchar" style="align=left;strokeColor=none;fillColor=none;spacingLeft=4;spacingRight=4;fontSize=12;verticalAlign=top;resizable=0;rotatable=0;part=1;html=1;whiteSpace=wrap;" parent="xpLYCG2Ab2DHFvzXxpW--23" vertex="1">
          <mxGeometry y="200" width="240" height="40" as="geometry" />
        </mxCell>
        <mxCell id="xpLYCG2Ab2DHFvzXxpW--27" value="Membership" style="swimlane;childLayout=stackLayout;horizontal=1;startSize=50;horizontalStack=0;rounded=1;fontSize=14;fontStyle=0;strokeWidth=2;resizeParent=0;resizeLast=1;shadow=0;dashed=0;align=center;arcSize=4;whiteSpace=wrap;html=1;" parent="1" vertex="1">
          <mxGeometry x="90" y="340" width="190" height="120" as="geometry" />
        </mxCell>
        <mxCell id="xpLYCG2Ab2DHFvzXxpW--28" value="+ user: User &amp;lt;&amp;lt;FK&amp;gt;&amp;gt;&lt;br&gt;+ group: Workgroup &amp;lt;&amp;lt;FK&amp;gt;&amp;gt;&lt;br&gt;+ role: JSON(&#39;admin&#39;, &#39;developer&#39;)" style="align=left;strokeColor=none;fillColor=none;spacingLeft=4;spacingRight=4;fontSize=12;verticalAlign=top;resizable=0;rotatable=0;part=1;html=1;whiteSpace=wrap;" parent="xpLYCG2Ab2DHFvzXxpW--27" vertex="1">
          <mxGeometry y="50" width="190" height="70" as="geometry" />
        </mxCell>
        <mxCell id="xpLYCG2Ab2DHFvzXxpW--29" value="Note" style="swimlane;childLayout=stackLayout;horizontal=1;startSize=50;horizontalStack=0;rounded=1;fontSize=14;fontStyle=0;strokeWidth=2;resizeParent=0;resizeLast=1;shadow=0;dashed=0;align=center;arcSize=4;whiteSpace=wrap;html=1;" parent="1" vertex="1">
          <mxGeometry x="820" y="300" width="240" height="200" as="geometry" />
        </mxCell>
        <mxCell id="xpLYCG2Ab2DHFvzXxpW--30" value="+ id: integer &amp;lt;&amp;lt;PK&amp;gt;&amp;gt;&lt;br&gt;+ title: varchar(128)&lt;br&gt;+ content: text&lt;div&gt;+ group: Workgroup &amp;lt;&amp;lt;FK&amp;gt;&amp;gt;&lt;/div&gt;&lt;div&gt;+ tags: Tag[ ] &amp;lt;&amp;lt;FK&amp;gt;&amp;gt;&lt;/div&gt;&lt;div&gt;+ lastEdited: datetime&lt;/div&gt;&lt;div&gt;+ lastEditor: User &amp;lt;&amp;lt;FK&amp;gt;&amp;gt;&lt;br&gt;&lt;/div&gt;" style="text;strokeColor=none;fillColor=none;spacingLeft=4;spacingRight=4;overflow=hidden;rotatable=0;points=[[0,0.5],[1,0.5]];portConstraint=eastwest;fontSize=12;whiteSpace=wrap;html=1;" parent="xpLYCG2Ab2DHFvzXxpW--29" vertex="1">
          <mxGeometry y="50" width="240" height="110" as="geometry" />
        </mxCell>
        <mxCell id="xpLYCG2Ab2DHFvzXxpW--31" value="" style="line;strokeWidth=1;rotatable=0;dashed=0;labelPosition=right;align=left;verticalAlign=middle;spacingTop=0;spacingLeft=6;points=[];portConstraint=eastwest;" parent="xpLYCG2Ab2DHFvzXxpW--29" vertex="1">
          <mxGeometry y="160" width="240" height="10" as="geometry" />
        </mxCell>
        <mxCell id="xpLYCG2Ab2DHFvzXxpW--32" value="+ __str__: varchar" style="align=left;strokeColor=none;fillColor=none;spacingLeft=4;spacingRight=4;fontSize=12;verticalAlign=top;resizable=0;rotatable=0;part=1;html=1;whiteSpace=wrap;" parent="xpLYCG2Ab2DHFvzXxpW--29" vertex="1">
          <mxGeometry y="170" width="240" height="30" as="geometry" />
        </mxCell>
        <mxCell id="xpLYCG2Ab2DHFvzXxpW--33" value="Tag" style="swimlane;childLayout=stackLayout;horizontal=1;startSize=50;horizontalStack=0;rounded=1;fontSize=14;fontStyle=0;strokeWidth=2;resizeParent=0;resizeLast=1;shadow=0;dashed=0;align=center;arcSize=4;whiteSpace=wrap;html=1;" parent="1" vertex="1">
          <mxGeometry x="440" y="20" width="240" height="180" as="geometry" />
        </mxCell>
        <mxCell id="xpLYCG2Ab2DHFvzXxpW--34" value="+ id: integer &amp;lt;&amp;lt;PK&amp;gt;&amp;gt;&lt;br&gt;+ label: varchar(128)&lt;br&gt;+ color: varchar(32; [&#39;red&#39;, ...])&lt;div&gt;+ group: Workgroup &amp;lt;&amp;lt;FK&amp;gt;&amp;gt;&lt;/div&gt;" style="text;strokeColor=none;fillColor=none;spacingLeft=4;spacingRight=4;overflow=hidden;rotatable=0;points=[[0,0.5],[1,0.5]];portConstraint=eastwest;fontSize=12;whiteSpace=wrap;html=1;" parent="xpLYCG2Ab2DHFvzXxpW--33" vertex="1">
          <mxGeometry y="50" width="240" height="70" as="geometry" />
        </mxCell>
        <mxCell id="xpLYCG2Ab2DHFvzXxpW--35" value="" style="line;strokeWidth=1;rotatable=0;dashed=0;labelPosition=right;align=left;verticalAlign=middle;spacingTop=0;spacingLeft=6;points=[];portConstraint=eastwest;" parent="xpLYCG2Ab2DHFvzXxpW--33" vertex="1">
          <mxGeometry y="120" width="240" height="10" as="geometry" />
        </mxCell>
        <mxCell id="xpLYCG2Ab2DHFvzXxpW--36" value="+ __str__: varchar" style="align=left;strokeColor=none;fillColor=none;spacingLeft=4;spacingRight=4;fontSize=12;verticalAlign=top;resizable=0;rotatable=0;part=1;html=1;whiteSpace=wrap;" parent="xpLYCG2Ab2DHFvzXxpW--33" vertex="1">
          <mxGeometry y="130" width="240" height="50" as="geometry" />
        </mxCell>
        <mxCell id="eY1I8stf0plbbnmBPiI_-3" value="" style="endArrow=none;html=1;rounded=0;entryX=0;entryY=0;entryDx=0;entryDy=0;exitX=1;exitY=0.25;exitDx=0;exitDy=0;" edge="1" parent="1" source="xpLYCG2Ab2DHFvzXxpW--6" target="xpLYCG2Ab2DHFvzXxpW--4">
          <mxGeometry relative="1" as="geometry">
            <mxPoint x="830" y="280" as="sourcePoint" />
            <mxPoint x="990" y="280" as="targetPoint" />
          </mxGeometry>
        </mxCell>
        <mxCell id="eY1I8stf0plbbnmBPiI_-4" value="1" style="resizable=0;html=1;whiteSpace=wrap;align=left;verticalAlign=bottom;" connectable="0" vertex="1" parent="eY1I8stf0plbbnmBPiI_-3">
          <mxGeometry x="-1" relative="1" as="geometry">
            <mxPoint x="10" y="-5" as="offset" />
          </mxGeometry>
        </mxCell>
        <mxCell id="eY1I8stf0plbbnmBPiI_-5" value="N" style="resizable=0;html=1;whiteSpace=wrap;align=right;verticalAlign=bottom;" connectable="0" vertex="1" parent="eY1I8stf0plbbnmBPiI_-3">
          <mxGeometry x="1" relative="1" as="geometry">
            <mxPoint x="-15" y="-10" as="offset" />
          </mxGeometry>
        </mxCell>
        <mxCell id="eY1I8stf0plbbnmBPiI_-6" value="" style="endArrow=none;html=1;rounded=0;entryX=0.5;entryY=0;entryDx=0;entryDy=0;exitX=0.5;exitY=1;exitDx=0;exitDy=0;" edge="1" parent="1" source="xpLYCG2Ab2DHFvzXxpW--26" target="xpLYCG2Ab2DHFvzXxpW--3">
          <mxGeometry relative="1" as="geometry">
            <mxPoint x="700" y="420" as="sourcePoint" />
            <mxPoint x="880" y="300" as="targetPoint" />
          </mxGeometry>
        </mxCell>
        <mxCell id="eY1I8stf0plbbnmBPiI_-7" value="1" style="resizable=0;html=1;whiteSpace=wrap;align=left;verticalAlign=bottom;" connectable="0" vertex="1" parent="eY1I8stf0plbbnmBPiI_-6">
          <mxGeometry x="-1" relative="1" as="geometry">
            <mxPoint x="10" y="20" as="offset" />
          </mxGeometry>
        </mxCell>
        <mxCell id="eY1I8stf0plbbnmBPiI_-8" value="N" style="resizable=0;html=1;whiteSpace=wrap;align=right;verticalAlign=bottom;" connectable="0" vertex="1" parent="eY1I8stf0plbbnmBPiI_-6">
          <mxGeometry x="1" relative="1" as="geometry">
            <mxPoint x="20" y="-10" as="offset" />
          </mxGeometry>
        </mxCell>
        <mxCell id="eY1I8stf0plbbnmBPiI_-11" value="" style="endArrow=none;html=1;rounded=0;entryX=0;entryY=0.5;entryDx=0;entryDy=0;" edge="1" parent="1" target="xpLYCG2Ab2DHFvzXxpW--24">
          <mxGeometry relative="1" as="geometry">
            <mxPoint x="280" y="400" as="sourcePoint" />
            <mxPoint x="460" y="280" as="targetPoint" />
          </mxGeometry>
        </mxCell>
        <mxCell id="eY1I8stf0plbbnmBPiI_-12" value="N" style="resizable=0;html=1;whiteSpace=wrap;align=left;verticalAlign=bottom;" connectable="0" vertex="1" parent="eY1I8stf0plbbnmBPiI_-11">
          <mxGeometry x="-1" relative="1" as="geometry">
            <mxPoint x="10" as="offset" />
          </mxGeometry>
        </mxCell>
        <mxCell id="eY1I8stf0plbbnmBPiI_-13" value="1" style="resizable=0;html=1;whiteSpace=wrap;align=right;verticalAlign=bottom;" connectable="0" vertex="1" parent="eY1I8stf0plbbnmBPiI_-11">
          <mxGeometry x="1" relative="1" as="geometry">
            <mxPoint x="-10" as="offset" />
          </mxGeometry>
        </mxCell>
        <mxCell id="eY1I8stf0plbbnmBPiI_-14" value="" style="endArrow=none;html=1;rounded=0;entryX=0.5;entryY=0;entryDx=0;entryDy=0;exitX=0.5;exitY=1;exitDx=0;exitDy=0;" edge="1" parent="1" source="xpLYCG2Ab2DHFvzXxpW--8" target="xpLYCG2Ab2DHFvzXxpW--27">
          <mxGeometry relative="1" as="geometry">
            <mxPoint x="210" y="220" as="sourcePoint" />
            <mxPoint x="210" y="370" as="targetPoint" />
          </mxGeometry>
        </mxCell>
        <mxCell id="eY1I8stf0plbbnmBPiI_-15" value="1" style="resizable=0;html=1;whiteSpace=wrap;align=left;verticalAlign=bottom;" connectable="0" vertex="1" parent="eY1I8stf0plbbnmBPiI_-14">
          <mxGeometry x="-1" relative="1" as="geometry">
            <mxPoint x="5" y="20" as="offset" />
          </mxGeometry>
        </mxCell>
        <mxCell id="eY1I8stf0plbbnmBPiI_-16" value="N" style="resizable=0;html=1;whiteSpace=wrap;align=right;verticalAlign=bottom;" connectable="0" vertex="1" parent="eY1I8stf0plbbnmBPiI_-14">
          <mxGeometry x="1" relative="1" as="geometry">
            <mxPoint x="15" y="-10" as="offset" />
          </mxGeometry>
        </mxCell>
        <mxCell id="eY1I8stf0plbbnmBPiI_-17" value="" style="endArrow=none;html=1;rounded=0;exitX=1;exitY=0.5;exitDx=0;exitDy=0;dashed=1;" edge="1" parent="1" source="xpLYCG2Ab2DHFvzXxpW--22">
          <mxGeometry relative="1" as="geometry">
            <mxPoint x="300" y="240" as="sourcePoint" />
            <mxPoint x="440" y="110" as="targetPoint" />
          </mxGeometry>
        </mxCell>
        <mxCell id="eY1I8stf0plbbnmBPiI_-18" value="1" style="resizable=0;html=1;whiteSpace=wrap;align=left;verticalAlign=bottom;" connectable="0" vertex="1" parent="eY1I8stf0plbbnmBPiI_-17">
          <mxGeometry x="-1" relative="1" as="geometry">
            <mxPoint x="10" as="offset" />
          </mxGeometry>
        </mxCell>
        <mxCell id="eY1I8stf0plbbnmBPiI_-20" value="" style="endArrow=none;html=1;rounded=0;entryX=1;entryY=0.5;entryDx=0;entryDy=0;exitX=0;exitY=0.5;exitDx=0;exitDy=0;" edge="1" parent="1" source="xpLYCG2Ab2DHFvzXxpW--29" target="xpLYCG2Ab2DHFvzXxpW--24">
          <mxGeometry relative="1" as="geometry">
            <mxPoint x="780" y="250" as="sourcePoint" />
            <mxPoint x="940" y="250" as="targetPoint" />
          </mxGeometry>
        </mxCell>
        <mxCell id="eY1I8stf0plbbnmBPiI_-21" value="1" style="resizable=0;html=1;whiteSpace=wrap;align=right;verticalAlign=bottom;" connectable="0" vertex="1" parent="eY1I8stf0plbbnmBPiI_-20">
          <mxGeometry x="1" relative="1" as="geometry">
            <mxPoint x="20" as="offset" />
          </mxGeometry>
        </mxCell>
        <mxCell id="eY1I8stf0plbbnmBPiI_-22" value="" style="endArrow=none;html=1;rounded=0;exitX=1;exitY=0.5;exitDx=0;exitDy=0;entryX=0.5;entryY=0;entryDx=0;entryDy=0;dashed=1;" edge="1" parent="1" source="xpLYCG2Ab2DHFvzXxpW--34" target="xpLYCG2Ab2DHFvzXxpW--29">
          <mxGeometry relative="1" as="geometry">
            <mxPoint x="900" y="110" as="sourcePoint" />
            <mxPoint x="1060" y="110" as="targetPoint" />
            <Array as="points">
              <mxPoint x="940" y="105" />
            </Array>
          </mxGeometry>
        </mxCell>
        <mxCell id="eY1I8stf0plbbnmBPiI_-23" value="N" style="resizable=0;html=1;whiteSpace=wrap;align=left;verticalAlign=bottom;" connectable="0" vertex="1" parent="eY1I8stf0plbbnmBPiI_-22">
          <mxGeometry x="-1" relative="1" as="geometry">
            <mxPoint x="10" y="-5" as="offset" />
          </mxGeometry>
        </mxCell>
        <mxCell id="eY1I8stf0plbbnmBPiI_-25" value="" style="endArrow=none;html=1;rounded=0;exitX=0.75;exitY=1;exitDx=0;exitDy=0;entryX=0.25;entryY=0;entryDx=0;entryDy=0;dashed=1;" edge="1" parent="1" source="xpLYCG2Ab2DHFvzXxpW--8" target="xpLYCG2Ab2DHFvzXxpW--29">
          <mxGeometry relative="1" as="geometry">
            <mxPoint x="500" y="240" as="sourcePoint" />
            <mxPoint x="880" y="240" as="targetPoint" />
            <Array as="points">
              <mxPoint x="233" y="240" />
              <mxPoint x="880" y="240" />
            </Array>
          </mxGeometry>
        </mxCell>
        <mxCell id="eY1I8stf0plbbnmBPiI_-26" value="1" style="resizable=0;html=1;whiteSpace=wrap;align=left;verticalAlign=bottom;" connectable="0" vertex="1" parent="eY1I8stf0plbbnmBPiI_-25">
          <mxGeometry x="-1" relative="1" as="geometry">
            <mxPoint x="8" y="20" as="offset" />
          </mxGeometry>
        </mxCell>
      </root>
    </mxGraphModel>
  </diagram>
</mxfile>
